<?xml version="1.0" encoding="utf-8"?>
<!-- Generator: Adobe Illustrator 21.0.0, SVG Export Plug-In . SVG Version: 6.00 Build 0)  -->
<svg version="1.1" id="Слой_1" xmlns="http://www.w3.org/2000/svg" xmlns:xlink="http://www.w3.org/1999/xlink" x="0px" y="0px"
	 viewBox="0 0 35.7 30.9" style="enable-background:new 0 0 35.7 30.9;" xml:space="preserve">
<style type="text/css">
	.st0{filter:url(#blur);}
	.st1{fill:#91C0F8;stroke:#FFFFFF;stroke-width:1.2;stroke-linejoin:round;}
	.st2{fill:#57A0EE;stroke:#FFFFFF;stroke-width:1.2;stroke-linejoin:round;}
</style>
<filter  height="200%" id="blur" width="200%">
	<feGaussianBlur  in="SourceAlpha" stdDeviation="3"></feGaussianBlur>
	<feOffset  dx="0" dy="4" result="offsetblur"></feOffset>
	<feComponentTransfer>
		<feFuncA  slope="0.05" type="linear"></feFuncA>
	</feComponentTransfer>
	<feMerge>
		<feMergeNode></feMergeNode>
		<feMergeNode  in="SourceGraphic"></feMergeNode>
	</feMerge>
</filter>
<g id="cloudy" class="st0">
	<g transform="translate(20,10)">
		<g>
			<path class="st1" d="M4.9,0.5c0-2.8-2.2-4.9-4.9-4.9c-0.6,0-1.1,0.1-1.7,0.3c-0.2-2-1.9-3.7-4-3.7c-2.2,0-4,1.8-4,4
				c0,0.5,0.1,1,0.2,1.4c-0.2-0.1-0.4-0.1-0.6-0.1c-2.2,0-4,1.8-4,4c0,2.2,1.7,4,3.9,4H0.1C2.8,5.2,4.9,3.1,4.9,0.5z"/>
		</g>
		<g>
			<path class="st2" d="M14,11.7c0-4.6-3.7-8.2-8.2-8.2C4.8,3.5,3.8,3.7,3,4C2.7,0.6-0.1-2.3-3.6-2.3c-3.7,0-6.7,3-6.7,6.7
				c0,0.8,0.2,1.6,0.4,2.3c-0.3-0.1-0.7-0.1-1-0.1c-3.7,0-6.7,3-6.7,6.7c0,3.6,2.9,6.6,6.5,6.7H6.1C10.5,19.5,14,16,14,11.7z"/>
		</g>
	</g>
</g>
</svg>
